<?xml version="1.0" encoding="iso-8859-1"?>
<!-- Generator: Adobe Illustrator 17.1.0, SVG Export Plug-In . SVG Version: 6.00 Build 0)  -->
<!DOCTYPE svg PUBLIC "-//W3C//DTD SVG 1.1//EN" "http://www.w3.org/Graphics/SVG/1.1/DTD/svg11.dtd">
<svg version="1.1" id="Layer_1" xmlns="http://www.w3.org/2000/svg" xmlns:xlink="http://www.w3.org/1999/xlink" x="0px" y="0px"
	 viewBox="0 0 400 70" style="enable-background:new 0 0 400 70;" xml:space="preserve">
<g>
	<linearGradient id="SVGID_1_" gradientUnits="userSpaceOnUse" x1="21.9652" y1="75.0616" x2="21.9652" y2="39.7518">
		<stop  offset="0" style="stop-color:#70BCDF"/>
		<stop  offset="0.1398" style="stop-color:#ACD6EC"/>
		<stop  offset="1" style="stop-color:#FFFFFF"/>
	</linearGradient>
	<path style="fill:url(#SVGID_1_);" d="M1.85,10.695h22.812c2.325,0,4.467,0.261,6.435,0.782c1.96,0.523,3.673,1.29,5.116,2.31
		c1.446,1.02,2.569,2.32,3.373,3.909c0.802,1.588,1.209,3.446,1.209,5.576c0,3.125-0.757,5.604-2.274,7.426
		c-1.521,1.825-3.671,3.21-6.471,4.158v0.139c6.684,1.373,10.03,5.023,10.03,10.947c0,2.982-0.596,5.399-1.782,7.245
		c-1.186,1.846-2.702,3.303-4.547,4.371c-1.848,1.066-3.921,1.787-6.224,2.167c-2.295,0.38-4.555,0.568-6.78,0.568H1.85V10.695z
		 M15.072,30.306h3.696c1.086,0,2.154-0.08,3.197-0.247c1.039-0.166,1.979-0.435,2.806-0.819c0.827-0.377,1.501-0.91,2.028-1.598
		c0.521-0.686,0.774-1.551,0.774-2.596c0-1.136-0.241-2.034-0.736-2.7c-0.5-0.661-1.154-1.161-1.958-1.491
		c-0.809-0.33-1.734-0.543-2.777-0.641c-1.04-0.093-2.105-0.139-3.19-0.139h-3.841V30.306z M15.072,50.915h3.909
		c1.181,0,2.368-0.058,3.554-0.176c1.182-0.118,2.25-0.379,3.197-0.782c0.946-0.404,1.704-0.985,2.27-1.742
		c0.57-0.757,0.857-1.775,0.857-3.057c0-1.323-0.297-2.391-0.888-3.197s-1.357-1.397-2.274-1.777
		c-0.925-0.379-1.968-0.626-3.13-0.745c-1.157-0.118-2.305-0.176-3.445-0.176h-4.049V50.915z"/>
	<linearGradient id="SVGID_2_" gradientUnits="userSpaceOnUse" x1="62.5046" y1="75.0616" x2="62.5046" y2="39.7518">
		<stop  offset="0" style="stop-color:#70BCDF"/>
		<stop  offset="0.1398" style="stop-color:#ACD6EC"/>
		<stop  offset="1" style="stop-color:#FFFFFF"/>
	</linearGradient>
	<path style="fill:url(#SVGID_2_);" d="M75.4,33.506c-0.707-0.239-1.422-0.369-2.127-0.392c-0.717-0.023-1.446-0.036-2.212-0.036
		c-2.984,0-5.279,1.02-6.885,3.057c-1.614,2.036-2.418,4.877-2.418,8.525v15.633h-12.79V23.272h11.649v6.822h0.146
		c1.093-2.369,2.487-4.24,4.191-5.613c1.707-1.373,3.957-2.061,6.755-2.061c0.752,0,1.505,0.048,2.234,0.141
		c0.739,0.096,1.433,0.191,2.097,0.284L75.4,33.506z"/>
	<linearGradient id="SVGID_3_" gradientUnits="userSpaceOnUse" x1="97.6056" y1="75.0616" x2="97.6056" y2="39.7518">
		<stop  offset="0" style="stop-color:#70BCDF"/>
		<stop  offset="0.1398" style="stop-color:#ACD6EC"/>
		<stop  offset="1" style="stop-color:#FFFFFF"/>
	</linearGradient>
	<path style="fill:url(#SVGID_3_);" d="M104.748,60.294c-0.053-0.995-0.111-1.976-0.181-2.949c-0.068-0.97-0.103-1.928-0.103-2.876
		h-0.145c-1.47,2.323-3.128,4.014-4.975,5.08c-1.843,1.068-4.098,1.599-6.749,1.599c-1.848,0-3.6-0.226-5.261-0.676
		c-1.654-0.449-3.122-1.159-4.406-2.132c-1.279-0.968-2.295-2.189-3.054-3.66c-0.757-1.466-1.134-3.195-1.134-5.186
		c0-2.843,0.673-5.091,2.026-6.75c1.345-1.659,3.004-2.924,4.972-3.801c1.966-0.877,4.049-1.446,6.252-1.706
		c2.205-0.261,4.157-0.392,5.864-0.392c1.041,0,2.099,0.047,3.165,0.143c1.061,0.096,1.999,0.213,2.803,0.355
		c0-1.279-0.226-2.321-0.676-3.127c-0.452-0.805-1.066-1.455-1.845-1.954c-0.782-0.497-1.684-0.84-2.702-1.031
		c-1.017-0.189-2.093-0.284-3.233-0.284c-2.086,0-4.123,0.214-6.111,0.639c-1.99,0.429-3.886,1.139-5.686,2.134l-0.213-8.672
		c2.275-0.946,4.621-1.621,7.031-2.024c2.419-0.402,5.002-0.603,7.748-0.603c2.373,0,4.621,0.271,6.756,0.819
		c2.129,0.543,4.002,1.42,5.611,2.627c1.606,1.209,2.889,2.785,3.839,4.726c0.946,1.941,1.42,4.334,1.42,7.176v13.786
		c0,1.468,0.048,2.926,0.138,4.372c0.096,1.445,0.287,2.9,0.57,4.367H104.748z M92.17,51.554c0.995,0.712,2.249,1.068,3.765,1.068
		c1.186,0,2.271-0.249,3.266-0.748c0.995-0.497,1.828-1.161,2.489-1.989c0.664-0.831,1.182-1.767,1.566-2.806
		c0.375-1.041,0.566-2.109,0.566-3.199c-0.804-0.046-1.672-0.096-2.596-0.143c-0.92-0.045-1.857-0.07-2.808-0.07
		c-2.175,0-4.01,0.366-5.505,1.1c-1.49,0.736-2.237,2.001-2.237,3.803C90.678,49.847,91.176,50.843,92.17,51.554z"/>
	<linearGradient id="SVGID_4_" gradientUnits="userSpaceOnUse" x1="143.6489" y1="75.0616" x2="143.6489" y2="39.7518">
		<stop  offset="0" style="stop-color:#70BCDF"/>
		<stop  offset="0.1398" style="stop-color:#ACD6EC"/>
		<stop  offset="1" style="stop-color:#FFFFFF"/>
	</linearGradient>
	<path style="fill:url(#SVGID_4_);" d="M123.929,23.272h11.661v6.822h0.138c1.282-2.702,3.117-4.656,5.51-5.86
		c2.388-1.211,5.053-1.813,7.992-1.813c2.514,0,4.666,0.417,6.47,1.242c1.795,0.831,3.263,1.92,4.401,3.27
		c1.141,1.352,1.968,2.924,2.493,4.726c0.52,1.802,0.775,3.648,0.775,5.541v23.094h-12.79V42.387c0-3.457-0.543-5.875-1.634-7.249
		c-1.085-1.373-2.507-2.061-4.264-2.061c-2.649,0-4.638,0.925-5.968,2.771c-1.324,1.848-1.991,4.786-1.991,8.811v15.633h-12.792
		V23.272z"/>
	<linearGradient id="SVGID_5_" gradientUnits="userSpaceOnUse" x1="190.3059" y1="75.0616" x2="190.3059" y2="39.7518">
		<stop  offset="0" style="stop-color:#70BCDF"/>
		<stop  offset="0.1398" style="stop-color:#ACD6EC"/>
		<stop  offset="1" style="stop-color:#FFFFFF"/>
	</linearGradient>
	<path style="fill:url(#SVGID_5_);" d="M211.054,60.294h-11.775v-6.608h-0.148c-0.423,1.043-1.038,2.014-1.842,2.915
		c-0.802,0.898-1.774,1.692-2.914,2.378c-1.133,0.687-2.371,1.221-3.717,1.601c-1.347,0.379-2.758,0.568-4.223,0.568
		c-2.745,0-5.164-0.532-7.265-1.599c-2.107-1.066-3.873-2.509-5.287-4.334c-1.425-1.824-2.499-3.942-3.228-6.36
		c-0.734-2.414-1.098-4.997-1.098-7.747c0-2.272,0.34-4.522,1.028-6.749c0.681-2.225,1.7-4.231,3.054-6.006
		c1.354-1.775,3.007-3.21,4.972-4.298c1.968-1.088,4.235-1.634,6.792-1.634c2.554,0,4.904,0.4,7.031,1.207
		c2.134,0.807,4.024,2.273,5.686,4.406h0.144V7h12.79V60.294z M184.835,48.605c1.372,1.823,3.26,2.737,5.679,2.737
		c1.04,0,2.034-0.236,2.984-0.709c0.95-0.475,1.782-1.139,2.486-1.99c0.719-0.853,1.286-1.848,1.711-2.987
		c0.425-1.136,0.638-2.393,0.638-3.766c0-2.841-0.712-5.163-2.127-6.963c-1.425-1.798-3.318-2.702-5.691-2.702
		c-1.225,0-2.331,0.249-3.303,0.749c-0.97,0.497-1.786,1.161-2.451,1.99c-0.666,0.83-1.162,1.802-1.493,2.911
		c-0.327,1.114-0.497,2.287-0.497,3.521C182.771,44.377,183.457,46.784,184.835,48.605z"/>
	<linearGradient id="SVGID_6_" gradientUnits="userSpaceOnUse" x1="240.4744" y1="75.0616" x2="240.4744" y2="39.7518">
		<stop  offset="0" style="stop-color:#70BCDF"/>
		<stop  offset="0.1398" style="stop-color:#ACD6EC"/>
		<stop  offset="1" style="stop-color:#FFFFFF"/>
	</linearGradient>
	<path style="fill:url(#SVGID_6_);" d="M215.533,10.695H229.6l11.018,38.943h0.138l11.086-38.943h13.574l-16.908,49.599h-16.344
		L215.533,10.695z"/>
	<linearGradient id="SVGID_7_" gradientUnits="userSpaceOnUse" x1="276.7144" y1="75.0616" x2="276.7144" y2="39.7518">
		<stop  offset="0" style="stop-color:#70BCDF"/>
		<stop  offset="0.1398" style="stop-color:#ACD6EC"/>
		<stop  offset="1" style="stop-color:#FFFFFF"/>
	</linearGradient>
	<path style="fill:url(#SVGID_7_);" d="M283.109,17.231h-12.79V7.854h12.79V17.231z M270.32,23.272h12.79v37.021h-12.79V23.272z"/>
	<linearGradient id="SVGID_8_" gradientUnits="userSpaceOnUse" x1="310.0416" y1="75.0616" x2="310.0416" y2="39.7518">
		<stop  offset="0" style="stop-color:#70BCDF"/>
		<stop  offset="0.1398" style="stop-color:#ACD6EC"/>
		<stop  offset="1" style="stop-color:#FFFFFF"/>
	</linearGradient>
	<path style="fill:url(#SVGID_8_);" d="M303.719,45.513c0.377,2.559,1.504,4.386,3.373,5.473c1.866,1.091,4.365,1.636,7.499,1.636
		c1.747,0,3.587-0.214,5.503-0.641c1.923-0.427,3.846-1.161,5.79-2.202v9.025c-2.087,0.807-4.261,1.395-6.539,1.775
		c-2.267,0.379-4.616,0.568-7.031,0.568c-3.077,0-5.923-0.438-8.525-1.313c-2.607-0.877-4.881-2.144-6.824-3.803
		c-1.941-1.657-3.457-3.681-4.545-6.074c-1.093-2.392-1.636-5.128-1.636-8.207c0-3.034,0.495-5.757,1.49-8.175
		c0.996-2.415,2.366-4.441,4.123-6.075c1.749-1.634,3.836-2.888,6.252-3.764c2.421-0.875,5.071-1.315,7.963-1.315
		c3.406,0,6.31,0.57,8.698,1.705c2.396,1.138,4.326,2.654,5.794,4.548c1.472,1.895,2.536,4.097,3.2,6.608
		c0.664,2.513,0.994,5.139,0.994,7.888v2.343H303.719z M317.784,38.264c0-2.129-0.545-3.95-1.631-5.47
		c-1.093-1.514-2.914-2.272-5.473-2.272c-2.323,0-4.052,0.757-5.189,2.272c-1.134,1.52-1.772,3.341-1.915,5.47H317.784z"/>
	<linearGradient id="SVGID_9_" gradientUnits="userSpaceOnUse" x1="365.5364" y1="75.0616" x2="365.5364" y2="39.7518">
		<stop  offset="0" style="stop-color:#70BCDF"/>
		<stop  offset="0.1398" style="stop-color:#ACD6EC"/>
		<stop  offset="1" style="stop-color:#FFFFFF"/>
	</linearGradient>
	<path style="fill:url(#SVGID_9_);" d="M332.633,23.272h13.359l5.968,26.647h0.143l6.398-26.647h15.347l6.252,26.647h0.143
		l5.824-26.647h12.371l-11.302,37.021h-14.849l-6.252-26.787h-0.146l-7.036,26.787h-14.851L332.633,23.272z"/>
</g>
</svg>
